<svg width="213" height="240" viewBox="0 0 213 240" fill="none" xmlns="http://www.w3.org/2000/svg">
<g clip-path="url(#clip0_401_73)">
<path fill-rule="evenodd" clip-rule="evenodd" d="M45.714 20.06L0.830002 70.218L118.65 238.748L212.16 62.198L169.15 12.036L131.74 -0.0019989L66.287 4.0111L45.715 20.0611L45.714 20.06Z" fill="url(#paint0_linear_401_73)"/>
<path fill-rule="evenodd" clip-rule="evenodd" d="M49.455 130.4L70.026 84.257L94.339 146.45L109.299 186.58L114.909 228.71L49.455 130.4Z" fill="url(#paint1_linear_401_73)"/>
<path fill-rule="evenodd" clip-rule="evenodd" d="M118.65 230.72L144.83 86.26L169.15 68.207L200.94 70.213L118.65 230.723V230.72Z" fill="url(#paint2_linear_401_73)"/>
<path fill-rule="evenodd" clip-rule="evenodd" d="M24.743 58.416L78.758 54.167H110.549L149.279 50.037L197.899 64.199L158.849 18.644L121.329 6.724L71.278 12.507L24.743 58.416Z" fill="url(#paint3_linear_401_73)"/>
<path fill-rule="evenodd" clip-rule="evenodd" d="M130.69 1.0566L65.47 5.062L44.808 21.085L0 71.291L117.75 239.801L211.35 63.281L168.28 13.071L130.69 1.054V1.0566ZM127.7 10.937L160.56 21.352L198.15 64.882L116.25 217.632L12.95 71.822L52.277 28.293L70.449 14.406L127.7 10.934V10.937Z" fill="black" fill-opacity="0.25312"/>
<path fill-rule="evenodd" clip-rule="evenodd" d="M111.17 72.224L113.04 200.624L71.897 90.284L58.805 108.334L25.142 70.221L62.546 60.189L111.17 72.227V72.224Z" fill="url(#paint4_linear_401_73)"/>
<path fill-rule="evenodd" clip-rule="evenodd" d="M129.11 2.0921C117.61 2.7323 78.869 4.3287 67.366 4.969C25.894 46.896 23.354 51.851 4.585 70.734C5.468 70.788 4.32 70.692 5.223 70.734C42.978 125.035 81.144 182.244 118.903 236.544C80.202 143.624 152.303 155.044 111.723 72.494C112.483 72.528 111.143 72.047 111.883 72.092C108.553 42.007 173.313 70.582 129.113 2.091L129.11 2.0921Z" fill="white" fill-opacity="0.39375"/>
<path d="M24.6875 63.1875C26.0208 63.2292 27.1875 63.25 28.1875 63.25C29.1875 63.2083 30 63.1875 30.625 63.1875H32.4375C32.8958 63.1458 33.4583 63.125 34.125 63.125C34.7083 63.125 35.4167 63.125 36.25 63.125C37.0833 63.125 38.0417 63.1458 39.125 63.1875C39.4583 64.3542 39.8333 65.5 40.25 66.625C40.7083 67.7083 41.1042 68.6875 41.4375 69.5625C41.8542 70.6042 42.2708 71.5833 42.6875 72.5C43.1042 73.4167 43.6042 74.5208 44.1875 75.8125C44.6875 76.8958 45.2917 78.2292 46 79.8125C46.7083 81.3542 47.5417 83.125 48.5 85.125C48.9583 83.8333 49.375 82.6458 49.75 81.5625C50.1667 80.4792 50.5208 79.5417 50.8125 78.75C51.1458 77.8333 51.4167 77 51.625 76.25C51.8333 75.5 52.0625 74.5833 52.3125 73.5C52.5208 72.5833 52.75 71.4792 53 70.1875C53.2917 68.8958 53.5833 67.3958 53.875 65.6875C55.0833 65.6875 56.1667 65.6875 57.125 65.6875C58.0833 65.6875 58.9167 65.6667 59.625 65.625C60.4167 65.625 61.125 65.6042 61.75 65.5625C62.4167 65.5625 63.3125 65.5208 64.4375 65.4375C65.3958 65.3542 66.6667 65.2917 68.25 65.25C69.875 65.1667 71.875 65.0625 74.25 64.9375C73.375 65.5625 72.6667 66.1875 72.125 66.8125C71.625 67.3958 71.2292 67.9167 70.9375 68.375C70.6042 68.9167 70.3958 69.4375 70.3125 69.9375C70.2292 70.3542 70.1458 71.3125 70.0625 72.8125C70.0208 74.3125 69.9583 76.1042 69.875 78.1875C69.8333 80.2292 69.7917 82.4167 69.75 84.75C69.75 87.0833 69.7708 89.2917 69.8125 91.375C69.8542 93.4583 69.9167 95.2708 70 96.8125C70.125 98.3125 70.2917 99.2708 70.5 99.6875C70.7917 100.188 71.1875 100.771 71.6875 101.438C72.1458 102.021 72.7292 102.688 73.4375 103.438C74.1875 104.188 75.1667 105.021 76.375 105.938C74.4583 106.021 72.8542 106.083 71.5625 106.125C70.3125 106.167 69.2708 106.208 68.4375 106.25C67.4792 106.292 66.7083 106.312 66.125 106.312C65.5 106.312 64.6458 106.333 63.5625 106.375C62.6042 106.417 61.3333 106.479 59.75 106.562C58.1667 106.604 56.125 106.688 53.625 106.812C54.2083 106.146 54.75 105.479 55.25 104.812C55.75 104.146 56.1667 103.542 56.5 103C56.9167 102.375 57.2708 101.771 57.5625 101.188C57.8542 100.396 58.0833 98.9583 58.25 96.875C58.4167 95.0833 58.5417 92.5208 58.625 89.1875C58.7083 85.8125 58.7083 81.2917 58.625 75.625C57.8333 76.9167 57.125 78.2083 56.5 79.5C55.9167 80.75 55.3958 81.8958 54.9375 82.9375C54.4375 84.1458 53.9792 85.3125 53.5625 86.4375C53.1458 87.6042 52.7083 88.8958 52.25 90.3125C51.8333 91.5208 51.3333 92.9583 50.75 94.625C50.2083 96.2917 49.5833 98.125 48.875 100.125L46.5 100.25C46.1667 98.5833 45.8333 97.0833 45.5 95.75C45.1667 94.375 44.8333 93.2083 44.5 92.25C44.125 91.125 43.75 90.125 43.375 89.25C42.9583 88.375 42.5 87.3958 42 86.3125C41.5417 85.3958 40.9792 84.3125 40.3125 83.0625C39.6875 81.8125 38.9583 80.4167 38.125 78.875C37.7083 83.125 37.4583 86.5833 37.375 89.25C37.2917 91.875 37.2917 93.9167 37.375 95.375C37.4583 97.125 37.5833 98.3958 37.75 99.1875C38 99.8958 38.3958 100.688 38.9375 101.562C39.3958 102.312 40.0208 103.208 40.8125 104.25C41.6458 105.25 42.7083 106.375 44 107.625C43.0833 107.625 42.125 107.625 41.125 107.625C40.125 107.625 39.2083 107.646 38.375 107.688C37.375 107.729 36.3958 107.75 35.4375 107.75C34.4375 107.792 33.2708 107.854 31.9375 107.938C30.7708 108.021 29.375 108.104 27.75 108.188C26.125 108.271 24.25 108.417 22.125 108.625C23.0417 108.042 23.7917 107.479 24.375 106.938C24.9583 106.354 25.4167 105.833 25.75 105.375C26.1667 104.833 26.4792 104.292 26.6875 103.75C26.8125 103.417 26.9167 102.688 27 101.562C27.125 100.438 27.2292 99.0625 27.3125 97.4375C27.4375 95.8125 27.5208 94 27.5625 92C27.6458 90 27.7083 87.9792 27.75 85.9375C27.8333 83.8542 27.8958 81.8333 27.9375 79.875C27.9792 77.875 28 76.0833 28 74.5C28.0417 72.875 28.0625 71.5208 28.0625 70.4375C28.0625 69.3542 28.0625 68.6667 28.0625 68.375C27.9375 67.75 27.75 67.125 27.5 66.5C27.2917 65.9583 26.9583 65.3958 26.5 64.8125C26.0417 64.2292 25.4375 63.6875 24.6875 63.1875ZM72.875 65.3125C75.7917 65.3958 78.2083 65.4583 80.125 65.5C82.0833 65.5 83.6667 65.5 84.875 65.5H88.1875H106.812C106.896 66.3333 106.958 67.1458 107 67.9375C107.083 68.6875 107.125 69.3542 107.125 69.9375C107.125 70.6458 107.104 71.2917 107.062 71.875C107.021 72.4583 106.958 73.0833 106.875 73.75C106.792 74.3333 106.708 74.9583 106.625 75.625C106.542 76.2917 106.396 76.9792 106.188 77.6875C105.604 75.4375 104.812 73.7292 103.812 72.5625C102.854 71.3958 101.875 70.5417 100.875 70C99.7083 69.375 98.4792 69.0417 97.1875 69C95.4792 69.0833 94.1458 69.2292 93.1875 69.4375C92.2292 69.6458 91.4792 69.9375 90.9375 70.3125C90.3958 70.6875 89.9792 71.125 89.6875 71.625C89.4375 72.0833 89.1667 72.6042 88.875 73.1875C88.625 73.6875 88.3958 74.4583 88.1875 75.5C87.9792 76.375 87.7708 77.5625 87.5625 79.0625C87.3958 80.5625 87.2083 82.5 87 84.875C88.125 84.5417 89.0208 84.2292 89.6875 83.9375C90.3958 83.6458 90.9583 83.3958 91.375 83.1875C91.8333 82.9375 92.1667 82.7083 92.375 82.5C92.5417 82.25 92.7917 81.7917 93.125 81.125C93.375 80.5417 93.7083 79.75 94.125 78.75C94.5833 77.75 95.125 76.375 95.75 74.625C95.8333 76.5417 95.875 78.1458 95.875 79.4375C95.875 80.6875 95.8958 81.7083 95.9375 82.5C95.9375 83.4167 95.9583 84.1458 96 84.6875V87.0625C96 87.9375 96 89.125 96 90.625C96.0417 92.0833 96.1042 93.9375 96.1875 96.1875C95.6875 94.6458 95.2292 93.4375 94.8125 92.5625C94.4375 91.6458 94.1042 90.9583 93.8125 90.5C93.4792 89.9583 93.1875 89.5833 92.9375 89.375C92.6458 89.2917 92.25 89.2083 91.75 89.125C91.2917 89.0833 90.7083 89.0625 90 89.0625C89.3333 89.0625 88.4792 89.1667 87.4375 89.375C87.3125 91.6667 87.2917 93.5208 87.375 94.9375C87.5 96.3125 87.6667 97.375 87.875 98.125C88.0833 99 88.3333 99.625 88.625 100C89 100.375 89.75 100.688 90.875 100.938C92 101.146 93.2708 101.229 94.6875 101.188C96.1458 101.104 97.625 100.854 99.125 100.438C100.625 100.021 101.958 99.3333 103.125 98.375C104 97.5833 104.938 96.5833 105.938 95.375C106.771 94.3333 107.688 93.0208 108.688 91.4375C109.729 89.8542 110.75 87.9375 111.75 85.6875C111.583 87.5625 111.458 89.125 111.375 90.375C111.333 91.5833 111.271 92.5625 111.188 93.3125C111.104 94.1875 111.042 94.8542 111 95.3125C111 95.8125 110.938 96.5208 110.812 97.4375C110.729 98.2292 110.583 99.3125 110.375 100.688C110.208 102.021 109.979 103.729 109.688 105.812C107.729 105.854 105.875 105.896 104.125 105.938C102.375 105.938 100.833 105.958 99.5 106C97.9167 106.042 96.4583 106.083 95.125 106.125C93.75 106.125 92.2292 106.188 90.5625 106.312C89.1042 106.396 87.375 106.521 85.375 106.688C83.4167 106.854 81.25 107.083 78.875 107.375C79.0833 104.542 79.2292 101.875 79.3125 99.375C79.4375 96.8333 79.5208 94.6042 79.5625 92.6875C79.6042 90.4375 79.6042 88.3542 79.5625 86.4375C79.7708 81.6458 79.6875 77.7708 79.3125 74.8125C78.9375 71.8542 78.5 69.9583 78 69.125C77.75 68.8333 77.3958 68.4792 76.9375 68.0625C76.5625 67.7292 76.0417 67.3333 75.375 66.875C74.7083 66.4167 73.875 65.8958 72.875 65.3125ZM113.375 63.6875C115.25 64.0208 116.792 64.25 118 64.375C119.208 64.5 120.188 64.6042 120.938 64.6875C121.812 64.7708 122.5 64.7917 123 64.75H124.875C125.542 64.75 126.375 64.75 127.375 64.75C128.417 64.7083 129.708 64.6875 131.25 64.6875C132.125 66.7292 132.917 68.6042 133.625 70.3125C134.375 72.0208 135 73.4792 135.5 74.6875C136.083 76.1458 136.625 77.4583 137.125 78.625C137.708 80.0833 138.333 81.6875 139 83.4375C139.667 85.1875 140.271 86.8333 140.812 88.375C141.396 89.9167 141.875 91.1875 142.25 92.1875C142.625 93.1875 142.812 93.6458 142.812 93.5625C142.812 93.5208 142.833 93.1042 142.875 92.3125C142.917 91.4792 142.958 90.4583 143 89.25C143.042 88 143.083 86.6458 143.125 85.1875C143.208 83.6875 143.25 82.25 143.25 80.875C143.292 79.4583 143.312 78.1667 143.312 77C143.312 75.8333 143.271 74.9583 143.188 74.375C143.062 73.6667 142.812 72.8542 142.438 71.9375C142.104 71.1458 141.646 70.2083 141.062 69.125C140.479 68 139.667 66.7292 138.625 65.3125C140.333 65.3542 141.729 65.375 142.812 65.375C143.896 65.375 144.771 65.375 145.438 65.375C146.188 65.375 146.771 65.3542 147.188 65.3125C147.729 65.3125 148.396 65.2708 149.188 65.1875C149.896 65.1042 150.771 65.0417 151.812 65C152.896 64.9167 154.229 64.8125 155.812 64.6875C154.896 65.5208 154.167 66.3125 153.625 67.0625C153.083 67.8125 152.646 68.4792 152.312 69.0625C151.938 69.7292 151.688 70.3542 151.562 70.9375C151.396 71.6875 151.25 72.9167 151.125 74.625C151.042 76.2917 150.938 78.1667 150.812 80.25C150.729 82.3333 150.646 84.5 150.562 86.75C150.479 89 150.396 91.0625 150.312 92.9375C150.312 94.3542 150.271 95.875 150.188 97.5C150.104 98.875 150.021 100.438 149.938 102.188C149.854 103.896 149.75 105.625 149.625 107.375L144.062 107.5C142.438 104.625 141.062 102.167 139.938 100.125C138.854 98.0417 137.958 96.3333 137.25 95C136.458 93.4583 135.792 92.1667 135.25 91.125C134.792 90.125 134.188 88.9792 133.438 87.6875C132.812 86.6042 132.021 85.2708 131.062 83.6875C130.146 82.1042 129.042 80.2917 127.75 78.25C127.625 81.125 127.562 83.5833 127.562 85.625C127.604 87.625 127.667 89.2917 127.75 90.625C127.875 92.1667 128.021 93.4583 128.188 94.5C128.396 95.5 128.688 96.625 129.062 97.875C129.396 98.9583 129.792 100.229 130.25 101.688C130.75 103.146 131.354 104.792 132.062 106.625C129.604 106.5 127.771 106.438 126.562 106.438H124.688C124.104 106.438 123.312 106.5 122.312 106.625C121.479 106.708 120.333 106.833 118.875 107C117.458 107.167 115.688 107.396 113.562 107.688C114.562 106.479 115.354 105.375 115.938 104.375C116.562 103.333 117.042 102.458 117.375 101.75C117.792 100.917 118.083 100.188 118.25 99.5625C118.375 98.8958 118.458 97.75 118.5 96.125C118.542 94.4583 118.542 92.5833 118.5 90.5C118.5 88.375 118.458 86.1458 118.375 83.8125C118.333 81.4792 118.271 79.3125 118.188 77.3125C118.104 75.3125 118 73.6042 117.875 72.1875C117.792 70.7708 117.729 69.8958 117.688 69.5625C117.562 69.0208 117.312 68.4375 116.938 67.8125C116.604 67.2708 116.167 66.6667 115.625 66C115.083 65.2917 114.333 64.5208 113.375 63.6875ZM154.875 64.0625C156.125 64.3125 157.188 64.5 158.062 64.625C158.938 64.75 159.667 64.8542 160.25 64.9375C160.917 65.0208 161.479 65.0625 161.938 65.0625C162.396 65.0625 163.021 65.0417 163.812 65C164.521 64.9583 165.417 64.9375 166.5 64.9375C167.583 64.8958 168.958 64.8333 170.625 64.75C169.667 65.4167 168.896 65.9792 168.312 66.4375C167.729 66.8958 167.292 67.2917 167 67.625C166.625 68 166.396 68.3125 166.312 68.5625C166.229 68.7292 166.146 69.3542 166.062 70.4375C165.979 71.4792 165.896 72.8125 165.812 74.4375C165.771 76.0208 165.771 77.8125 165.812 79.8125C165.854 81.7708 165.958 83.7708 166.125 85.8125C166.333 87.8542 166.625 89.8333 167 91.75C167.375 93.625 167.875 95.2708 168.5 96.6875C169.167 98.1042 169.958 99.2083 170.875 100C171.833 100.792 172.979 101.083 174.312 100.875C176.062 100.625 177.479 99.7708 178.562 98.3125C179.646 96.8542 180.458 95.0833 181 93C181.583 90.9167 181.938 88.6875 182.062 86.3125C182.229 83.8958 182.25 81.6458 182.125 79.5625C182.042 77.4375 181.875 75.6042 181.625 74.0625C181.375 72.5208 181.146 71.5625 180.938 71.1875C180.688 70.7708 180.354 70.2917 179.938 69.75C179.604 69.2917 179.167 68.7708 178.625 68.1875C178.083 67.5625 177.458 66.8958 176.75 66.1875C178.042 66.2292 179.208 66.2708 180.25 66.3125C181.292 66.3125 182.167 66.3333 182.875 66.375C183.708 66.4167 184.458 66.4583 185.125 66.5C185.792 66.5417 186.625 66.6042 187.625 66.6875C188.458 66.7708 189.521 66.8542 190.812 66.9375C192.146 67.0208 193.729 67.1458 195.562 67.3125C194.854 67.4792 194.271 67.7083 193.812 68C193.396 68.2917 193.062 68.6042 192.812 68.9375C192.521 69.3125 192.312 69.6875 192.188 70.0625C192.062 70.3958 191.958 71.3958 191.875 73.0625C191.833 74.6875 191.75 76.6667 191.625 79C191.542 81.2917 191.396 83.7917 191.188 86.5C190.979 89.1667 190.646 91.7083 190.188 94.125C189.771 96.5417 189.208 98.6875 188.5 100.562C187.833 102.438 186.958 103.729 185.875 104.438C184.292 105.479 182.625 106.229 180.875 106.688C179.125 107.104 177.354 107.333 175.562 107.375C173.771 107.375 172 107.229 170.25 106.938C168.542 106.604 166.896 106.208 165.312 105.75C163.688 105.25 162.333 104.125 161.25 102.375C160.208 100.625 159.375 98.5625 158.75 96.1875C158.167 93.7708 157.729 91.1875 157.438 88.4375C157.188 85.6458 157.021 82.9583 156.938 80.375C156.896 77.7917 156.896 75.4583 156.938 73.375C157.021 71.25 157.083 69.6458 157.125 68.5625C157.125 68.0208 157.042 67.5 156.875 67C156.75 66.5417 156.521 66.0625 156.188 65.5625C155.896 65.0208 155.458 64.5208 154.875 64.0625Z" fill="#FF2222"/>
</g>
<defs>
<linearGradient id="paint0_linear_401_73" x1="96.1019" y1="55.9586" x2="150.482" y2="80.4285" gradientUnits="userSpaceOnUse">
<stop stop-color="#63EFFF"/>
<stop offset="1" stop-color="#003EC3"/>
</linearGradient>
<linearGradient id="paint1_linear_401_73" x1="79.1136" y1="129.406" x2="99.5805" y2="129.174" gradientUnits="userSpaceOnUse">
<stop stop-color="#63EFFF"/>
<stop offset="1" stop-color="#003EC3"/>
</linearGradient>
<linearGradient id="paint2_linear_401_73" x1="184.48" y1="183.745" x2="128.819" y2="191.282" gradientUnits="userSpaceOnUse">
<stop stop-color="#63EFFF"/>
<stop offset="1" stop-color="#003EC3"/>
</linearGradient>
<linearGradient id="paint3_linear_401_73" x1="100.027" y1="48.0339" x2="101.186" y2="-3.56885" gradientUnits="userSpaceOnUse">
<stop stop-color="#63EFFF"/>
<stop offset="1" stop-color="#003EC3"/>
</linearGradient>
<linearGradient id="paint4_linear_401_73" x1="71.1374" y1="65.6694" x2="134.927" y2="173.911" gradientUnits="userSpaceOnUse">
<stop stop-color="#63EFFF"/>
<stop offset="1" stop-color="#003EC3"/>
</linearGradient>
<clipPath id="clip0_401_73">
<rect width="212.16" height="239.8" fill="white"/>
</clipPath>
</defs>
</svg>
